<svg width="22" height="24" viewBox="0 0 22 24" fill="none" xmlns="http://www.w3.org/2000/svg">
<path id="Vector - 0" fill-rule="evenodd" clip-rule="evenodd" d="M18.4535 4.94611H11.8587V1.6487C11.8587 1.19343 11.4896 0.824352 11.0344 0.824352C10.5791 0.824352 10.21 1.19343 10.21 1.6487V4.94611H3.61519C1.79408 4.94611 0.317783 6.42241 0.317783 8.24352V19.7845C0.317783 21.6056 1.79408 23.0819 3.61519 23.0819H18.4535C20.2746 23.0819 21.7509 21.6056 21.7509 19.7845V8.24352C21.7509 6.42241 20.2746 4.94611 18.4535 4.94611ZM20.1022 19.7845C20.1022 20.695 19.3641 21.4332 18.4535 21.4332H3.61519C2.70464 21.4332 1.96649 20.695 1.96649 19.7845V8.24352C1.96649 7.33297 2.70464 6.59482 3.61519 6.59482H18.4535C19.3641 6.59482 20.1022 7.33297 20.1022 8.24352V19.7845ZM14.7439 14.014H7.32478C5.73131 14.014 4.43954 15.3058 4.43954 16.8992C4.43954 18.4927 5.73131 19.7845 7.32478 19.7845H14.7439C16.3374 19.7845 17.6292 18.4927 17.6292 16.8992C17.6292 15.3058 16.3374 14.014 14.7439 14.014ZM11.8587 15.6627V18.1357H10.21V15.6627H11.8587ZM6.08825 16.8992C6.08825 16.2163 6.64186 15.6627 7.32478 15.6627H8.56131V18.1357H7.32478C6.64186 18.1357 6.08825 17.5821 6.08825 16.8992ZM14.7439 18.1357H13.5074V15.6627H14.7439C15.4269 15.6627 15.9805 16.2163 15.9805 16.8992C15.9805 17.5821 15.4269 18.1357 14.7439 18.1357ZM5.2639 11.1288C5.2639 10.4458 5.81751 9.89223 6.50043 9.89223C7.18334 9.89223 7.73695 10.4458 7.73695 11.1288C7.73695 11.8117 7.18334 12.3653 6.50043 12.3653C5.81751 12.3653 5.2639 11.8117 5.2639 11.1288ZM14.3318 11.1288C14.3318 10.4458 14.8854 9.89223 15.5683 9.89223C16.2512 9.89223 16.8048 10.4458 16.8048 11.1288C16.8048 11.8117 16.2512 12.3653 15.5683 12.3653C14.8854 12.3653 14.3318 11.8117 14.3318 11.1288Z" fill="white"/>
</svg>
