<svg width="22" height="24" viewBox="0 0 22 24" fill="none" xmlns="http://www.w3.org/2000/svg">
<path id="Vector - 0" fill-rule="evenodd" clip-rule="evenodd" d="M21.6386 16.7236C21.8653 17.1169 21.7312 17.6196 21.3388 17.8478L11.4465 23.6182C11.1899 23.7679 10.8726 23.7679 10.616 23.6182L0.723777 17.8478C0.337151 17.6155 0.209042 17.1155 0.436284 16.7259C0.663527 16.3363 1.16173 16.2016 1.55431 16.4237L11.0344 21.952L20.5144 16.4237C20.9078 16.197 21.4104 16.3311 21.6386 16.7236ZM20.5144 11.4776L11.0344 17.0059L1.55431 11.4776C1.16473 11.2836 0.691483 11.4259 0.473455 11.8026C0.255428 12.1792 0.367738 12.6604 0.729959 12.9017L10.6222 18.6721C10.8788 18.8218 11.1961 18.8218 11.4527 18.6721L21.3449 12.9017C21.6035 12.7554 21.7634 12.4813 21.7634 12.1842C21.7634 11.8871 21.6035 11.613 21.3449 11.4667C21.0863 11.3204 20.7691 11.3246 20.5144 11.4776ZM0.317783 7.24352C0.318452 6.94968 0.475483 6.67841 0.729959 6.53149L10.6222 0.761023C10.8788 0.611375 11.1961 0.611375 11.4527 0.761023L21.3449 6.53149C21.5982 6.67923 21.7539 6.95034 21.7539 7.24352C21.7539 7.5367 21.5982 7.80782 21.3449 7.95556L11.4527 13.726C11.1961 13.8757 10.8788 13.8757 10.6222 13.726L0.729959 7.95556C0.475483 7.80864 0.318452 7.53736 0.317783 7.24352ZM2.77847 7.24352L11.0344 12.0598L19.2903 7.24352L11.0344 2.42724L2.77847 7.24352Z" fill="white"/>
</svg>
