<svg width="69" height="68" viewBox="0 0 69 68" fill="none" xmlns="http://www.w3.org/2000/svg">
<g id="Lock">
<path id="Vector" d="M34.4995 6.36639C42.8622 6.36639 49.7497 12.676 50.6646 20.7941C51.9556 20.9602 53.0151 21.2246 53.9751 21.6457C57.0634 23.0004 59.5296 25.4675 60.8843 28.5558C62.0161 31.1365 62.0161 34.4343 62.0161 41.0285C62.0161 47.6228 62.0163 50.9205 60.8843 53.5012C59.5296 56.5894 57.0633 59.0557 53.9751 60.4103C51.3944 61.5423 48.0968 61.5422 41.5024 61.5422H27.354C20.7596 61.5422 17.4621 61.5423 14.8813 60.4103C11.7931 59.0557 9.32686 56.5894 7.97217 53.5012C6.84017 50.9205 6.84033 47.6228 6.84033 41.0285C6.84033 34.4343 6.84035 31.1365 7.97217 28.5558C9.32684 25.4675 11.793 23.0004 14.8813 21.6457C15.8766 21.2091 16.979 20.9423 18.3354 20.7775C19.2578 12.6674 26.1427 6.36666 34.4995 6.36639ZM34.4995 10.6105C28.5742 10.6108 23.6496 14.8966 22.6567 20.5373C24.0135 20.5146 25.562 20.5139 27.354 20.5139H41.5024C43.3575 20.5139 44.9516 20.515 46.3423 20.5402C45.3505 14.898 40.426 10.6105 34.4995 10.6105Z" fill="#5F5F5F" fill-opacity="0.31"/>
<path id="Vector_2" d="M34.5001 30.4174C38.7975 30.4174 42.2814 33.9012 42.2814 38.1986C42.2813 41.76 39.8878 44.76 36.6222 45.684V50.932C36.6219 52.1037 35.6719 53.054 34.5001 53.0541C33.3283 53.0541 32.3784 52.1037 32.3781 50.932V45.684C29.1124 44.76 26.7189 41.7601 26.7189 38.1986C26.7189 33.9012 30.2027 30.4174 34.5001 30.4174Z" fill="#1C1D1D"/>
</g>
</svg>
