<svg width="39" height="39" viewBox="0 0 39 39" fill="none" xmlns="http://www.w3.org/2000/svg">
<g id="Vector">
<path d="M28.2886 0.867512L37.958 10.3809H18.6193L28.2886 0.867512Z" fill="#FFC800"/>
<path d="M38.8897 12.5394L39 26.1036L25.3255 12.4291L38.8897 12.5394Z" fill="#FFC800"/>
<path d="M38.1325 28.2888L28.6192 37.9581V18.6194L38.1325 28.2888Z" fill="#FFC800"/>
<path d="M26.4606 38.8898L12.8964 39.0001L26.5709 25.3256L26.4606 38.8898Z" fill="#FFC800"/>
<path d="M10.7113 38.1326L1.04197 28.6192H20.3806L10.7113 38.1326Z" fill="#FFC800"/>
<path d="M0.110278 26.4607L0 12.8965L13.6745 26.571L0.110278 26.4607Z" fill="#FFC800"/>
<path d="M0.867447 10.7113L10.3808 1.04203V20.3807L0.867447 10.7113Z" fill="#FFC800"/>
<path d="M12.5394 0.110278L26.1036 0L12.4291 13.6745L12.5394 0.110278Z" fill="#FFC800"/>
</g>
</svg>
