<svg width="20" height="19" viewBox="0 0 20 19" fill="none" xmlns="http://www.w3.org/2000/svg">
<path id="Vector - 0" fill-rule="evenodd" clip-rule="evenodd" d="M9.19243 1.77047V6.71658C9.19243 7.62713 8.45428 8.36528 7.54373 8.36528H2.59761C1.68706 8.36528 0.94891 7.62713 0.94891 6.71658V1.77047C0.94891 0.859911 1.68706 0.121761 2.59761 0.121761H7.54373C8.45428 0.121761 9.19243 0.859911 9.19243 1.77047ZM17.436 0.121761H12.4898C11.5793 0.121761 10.8411 0.859911 10.8411 1.77047V6.71658C10.8411 7.62713 11.5793 8.36528 12.4898 8.36528H17.436C18.3465 8.36528 19.0847 7.62713 19.0847 6.71658V1.77047C19.0847 0.859911 18.3465 0.121761 17.436 0.121761ZM7.54373 10.014H2.59761C1.68706 10.014 0.94891 10.7521 0.94891 11.6627V16.6088C0.94891 17.5194 1.68706 18.2575 2.59761 18.2575H7.54373C8.45428 18.2575 9.19243 17.5194 9.19243 16.6088V11.6627C9.19243 10.7521 8.45428 10.014 7.54373 10.014ZM17.436 10.014H12.4898C11.5793 10.014 10.8411 10.7521 10.8411 11.6627V16.6088C10.8411 17.5194 11.5793 18.2575 12.4898 18.2575H17.436C18.3465 18.2575 19.0847 17.5194 19.0847 16.6088V11.6627C19.0847 10.7521 18.3465 10.014 17.436 10.014Z" fill="white"/>
</svg>
