<svg width="22" height="22" viewBox="0 0 22 22" fill="none" xmlns="http://www.w3.org/2000/svg">
<path id="Vector - 0" fill-rule="evenodd" clip-rule="evenodd" d="M11.0344 6.24352C8.3027 6.24352 6.08825 8.45797 6.08825 11.1896C6.08825 13.9213 8.3027 16.1357 11.0344 16.1357C13.766 16.1357 15.9805 13.9213 15.9805 11.1896C15.9776 8.45915 13.7648 6.24636 11.0344 6.24352ZM11.0344 14.487C9.21325 14.487 7.73695 13.0107 7.73695 11.1896C7.73695 9.36853 9.21325 7.89223 11.0344 7.89223C12.8555 7.89223 14.3318 9.36853 14.3318 11.1896C14.3318 13.0107 12.8555 14.487 11.0344 14.487ZM20.1022 11.4122C20.1064 11.2638 20.1064 11.1154 20.1022 10.9671L21.6397 9.04632C21.8031 8.8418 21.8597 8.57179 21.7922 8.31883C21.5401 7.37144 21.1631 6.46182 20.671 5.61392C20.5404 5.38894 20.3112 5.23882 20.0528 5.20896L17.6086 4.93692C17.5069 4.82976 17.4039 4.72671 17.2994 4.62779L17.0109 2.17741C16.9808 1.91876 16.8303 1.68954 16.6049 1.55914C15.7567 1.06798 14.8472 0.691339 13.9 0.439052C13.6469 0.371757 13.3769 0.428747 13.1725 0.592588L11.2569 2.12176C11.1086 2.12176 10.9602 2.12176 10.8118 2.12176L8.89105 0.587436C8.68653 0.423954 8.41651 0.367349 8.16356 0.434931C7.21632 0.687416 6.30676 1.06441 5.45865 1.55605C5.23366 1.68669 5.08355 1.91587 5.05369 2.17431L4.78165 4.62264C4.67449 4.725 4.57144 4.82804 4.47252 4.93177L2.02213 5.21308C1.76349 5.24317 1.53427 5.39369 1.40387 5.61908C0.912705 6.4673 0.536066 7.37684 0.283779 8.32398C0.216483 8.5771 0.273474 8.84714 0.437315 9.05147L1.96649 10.9671C1.96649 11.1154 1.96649 11.2638 1.96649 11.4122L0.432162 13.333C0.26868 13.5375 0.212076 13.8075 0.279657 14.0604C0.531692 15.0078 0.908709 15.9175 1.40078 16.7654C1.53141 16.9903 1.7606 17.1404 2.01904 17.1703L4.46324 17.4423C4.5656 17.5495 4.66865 17.6526 4.77238 17.7515L5.05781 20.2019C5.0879 20.4605 5.23842 20.6897 5.4638 20.8201C6.31202 21.3113 7.22157 21.6879 8.16871 21.9402C8.42183 22.0075 8.69186 21.9505 8.8962 21.7867L10.8118 20.2575C10.9602 20.2616 11.1086 20.2616 11.2569 20.2575L13.1777 21.7949C13.3822 21.9584 13.6522 22.015 13.9052 21.9474C14.8526 21.6954 15.7622 21.3184 16.6101 20.8263C16.8351 20.6957 16.9852 20.4665 17.015 20.208L17.2871 17.7638C17.3942 17.6622 17.4973 17.5591 17.5962 17.4547L20.0466 17.1662C20.3052 17.1361 20.5345 16.9856 20.6649 16.7602C21.156 15.912 21.5327 15.0024 21.7849 14.0553C21.8522 13.8022 21.7953 13.5321 21.6314 13.3278L20.1022 11.4122ZM18.4432 10.7424C18.4607 11.0403 18.4607 11.339 18.4432 11.6368C18.431 11.8408 18.4948 12.042 18.6225 12.2015L20.0847 14.0285C19.9169 14.5617 19.7021 15.079 19.4428 15.5742L17.114 15.838C16.9112 15.8605 16.7239 15.9574 16.5884 16.11C16.3901 16.3331 16.1788 16.5443 15.9557 16.7427C15.8032 16.8781 15.7062 17.0654 15.6837 17.2682L15.4251 19.5949C14.9299 19.8544 14.4127 20.0693 13.8794 20.2369L12.0514 18.7747C11.9051 18.6578 11.7234 18.5942 11.5362 18.5944H11.4867C11.1888 18.6119 10.8902 18.6119 10.5923 18.5944C10.3884 18.5821 10.1871 18.646 10.0276 18.7737L8.1955 20.2369C7.66228 20.0691 7.14503 19.8543 6.64984 19.5949L6.38605 17.2692C6.36353 17.0664 6.26661 16.8792 6.11401 16.7437C5.89093 16.5454 5.67967 16.3341 5.48132 16.111C5.34585 15.9584 5.1586 15.8615 4.9558 15.839L2.62906 15.5793C2.36959 15.0842 2.15475 14.5669 1.9871 14.0337L3.44929 12.2057C3.57697 12.0461 3.64086 11.8449 3.62859 11.641C3.61107 11.3431 3.61107 11.0444 3.62859 10.7465C3.64086 10.5426 3.57697 10.3414 3.44929 10.1819L1.9871 8.35077C2.15488 7.81755 2.36971 7.3003 2.62906 6.80511L4.95476 6.54132C5.15757 6.51881 5.34482 6.42188 5.48029 6.26928C5.67864 6.0462 5.8899 5.83494 6.11298 5.63659C6.26618 5.50104 6.36351 5.31336 6.38605 5.11004L6.64469 2.78433C7.13982 2.52486 7.65708 2.31002 8.19035 2.14237L10.0183 3.60456C10.1779 3.73224 10.3791 3.79614 10.583 3.78386C10.8809 3.76634 11.1796 3.76634 11.4775 3.78386C11.6814 3.79614 11.8826 3.73224 12.0421 3.60456L13.8732 2.14237C14.4064 2.31015 14.9237 2.52498 15.4189 2.78433L15.6827 5.11004C15.7052 5.31284 15.8021 5.50009 15.9547 5.63556C16.1778 5.83391 16.3891 6.04517 16.5874 6.26825C16.7229 6.42085 16.9101 6.51778 17.1129 6.54029L19.4397 6.79893C19.6991 7.29406 19.914 7.81133 20.0816 8.34459L18.6194 10.1726C18.4905 10.3334 18.4266 10.5367 18.4401 10.7424H18.4432Z" fill="white"/>
</svg>
